<?xml version="1.0" encoding="utf-8"?>
<!-- Generator: Adobe Illustrator 28.2.0, SVG Export Plug-In . SVG Version: 6.00 Build 0)  -->
<svg version="1.1" xmlns="http://www.w3.org/2000/svg" xmlns:xlink="http://www.w3.org/1999/xlink" x="0px" y="0px"
	 viewBox="0 0 1920 1080" style="enable-background:new 0 0 1920 1080;" xml:space="preserve">
<style type="text/css">
	.st0{fill:#0355BF;}
	.st1{fill:#0CC1CB;stroke:#000000;stroke-width:0.8137;stroke-miterlimit:10;}
	.st2{fill:#67CECE;}
	.st3{fill:#F4F6C0;stroke:#BCBC69;stroke-width:3.0779;stroke-miterlimit:10;}
	.st4{fill:#2D70BA;}
	.st5{fill:#117017;stroke:#044707;stroke-miterlimit:10;}
	.st6{fill:#47C447;stroke:#000000;stroke-width:0.7695;stroke-miterlimit:10;}
	.st7{fill:#9A4D1D;stroke:#000000;stroke-width:1.126;stroke-miterlimit:10;}
	.st8{fill:#FFFFFF;}
	.st9{fill:#9A4D1D;stroke:#000000;stroke-width:1.2746;stroke-miterlimit:10;}
	.st10{fill:#2D70BA;stroke:#000000;stroke-width:0.7695;stroke-miterlimit:10;}
	.st11{fill:#2D70BA;stroke:#000000;stroke-width:0.6798;stroke-miterlimit:10;}
	.st12{fill:#47C447;stroke:#000000;stroke-miterlimit:10;}
	.st13{fill:#F2B38C;stroke:#000000;stroke-miterlimit:10;}
	.st14{fill:#BFB840;}
	.st15{fill:none;stroke:#FFFFFF;stroke-width:3.0779;stroke-linecap:round;stroke-miterlimit:10;}
	.st16{fill:none;stroke:#FFFFFF;stroke-width:3.0779;stroke-linecap:round;stroke-miterlimit:10;stroke-dasharray:11.0819,11.0819;}
	.st17{fill:#9A4D1D;stroke:#000000;stroke-miterlimit:10;}
	.st18{fill:none;stroke:#FFFFFF;stroke-width:2.009;stroke-linecap:round;stroke-miterlimit:10;stroke-dasharray:7.8326;}
	.st19{fill:#47C447;stroke:#000000;stroke-width:0.5214;stroke-miterlimit:10;}
	.st20{fill:#BCBC69;stroke:#000000;stroke-width:2;stroke-miterlimit:10;}
	.st21{fill:#BCBC69;stroke:#727033;stroke-width:10;stroke-miterlimit:10;}
	.st22{fill:none;stroke:#878548;stroke-width:1.8464;stroke-miterlimit:10;}
</style>
<g id="Layer_1">
	<g>
		<rect x="611.5" y="56.5" class="st0" width="1248.1" height="857.1"/>
		<path d="M1859.1,56.9v856.1H611.9V56.9H1859.1 M1860,56H611v858h1249V56L1860,56z"/>
	</g>
	<path class="st1" d="M975.1,212.4l-43.7,66.2c-22.7,34.3-14.8,80.3,18,105.2l107.1,81.3c26.7,20.3,43.5,51,46.1,84.5l6.2,78.9
		c3.4,42.9,31.6,79.8,72.1,94.3l164,58.6c22.3,8,46.4,9.4,69.4,4.1l178.6-41.1l23.2-5.5c62.6-14.8,106.8-70.7,106.8-135.1v-84.7
		c0-22.6-14.9-42.5-36.7-48.8l-21-6.1c-17.1-5-32.5-14.7-44.3-28l-96.4-108.6c-17.2-19.3-39.3-33.6-64-41.2l-131.7-40.6
		c-21.7-6.7-41.9-17.6-59.4-32.1l-27.1-22.6c-38.4-31.9-88.5-46-137.8-38.7l-37.9,5.6l-35.1,11.5
		C1008.4,177,988.5,192.1,975.1,212.4z"/>
	<path class="st2" d="M1034.7,255.6l-36.2,52.8c-18.8,27.4-12.3,64.1,14.9,84l88.8,64.9c22.1,16.2,36.1,40.7,38.2,67.4l5.1,62.9
		c2.8,34.2,26.2,63.7,59.8,75.3l135.9,46.8c18.5,6.4,38.4,7.5,57.5,3.2l148-32.8l19.2-4.4c51.9-11.8,88.5-56.5,88.5-107.8v-67.6
		c0-18.1-12.4-33.9-30.4-39l-17.4-4.9c-14.2-4-26.9-11.7-36.7-22.4l-79.9-86.7c-14.2-15.4-32.6-26.8-53.1-32.9l-109.2-32.4
		c-18-5.3-34.7-14.1-49.2-25.6l-22.5-18c-31.8-25.4-73.3-36.7-114.2-30.9l-31.4,4.4l-29.1,9.1
		C1062.2,227.3,1045.8,239.4,1034.7,255.6z"/>
	<path class="st3" d="M1087,279l-29.6,43.2c-15.3,22.4-10,52.4,12.2,68.6l72.5,53c18.1,13.2,29.4,33.3,31.2,55.1l4.2,51.4
		c2.3,28,21.4,52.1,48.8,61.5l111,38.2c15.1,5.2,31.4,6.1,47,2.7l120.9-26.8l15.7-3.6c42.4-9.7,72.3-46.1,72.3-88.1V479
		c0-14.7-10.1-27.7-24.8-31.8l-14.2-4c-11.6-3.2-22-9.6-30-18.3l-65.3-70.8c-11.6-12.6-26.6-21.9-43.3-26.8l-89.2-26.4
		c-14.7-4.4-28.4-11.5-40.2-20.9l-18.4-14.7c-26-20.8-59.9-30-93.3-25.2l-25.6,3.6l-23.8,7.5C1109.5,255.9,1096.1,265.8,1087,279z"
		/>
	<g>
		<path class="st4" d="M1113.3,132.4c42.3,0,83.6,14.9,116.1,42l29.5,24.5c20,16.6,42.8,29,67.7,36.6l143.1,44.1
			c25.2,7.8,47.8,22.3,65.4,42l104.8,117.9c14,15.8,32.2,27.3,52.5,33.2l22.8,6.6c9.6,2.8,17.9,8.5,24,16.6c6,8,9.2,17.6,9.2,27.6
			v92c0,31.7-10.8,62.9-30.5,87.8c-19.7,24.9-47.5,42.6-78.4,49.9l-25.2,6l-194,44.7c-9.2,2.1-18.6,3.2-28.1,3.2
			c-14.4,0-28.6-2.5-42.2-7.3l-178.2-63.7c-40.5-14.5-68.9-51.6-72.2-94.5l-6.7-85.7c-3-38.9-22.6-74.8-53.7-98.4l-116.4-88.4
			c-15.3-11.6-25.6-28.5-28.8-47.5c-3.2-19,0.8-38.3,11.4-54.4l47.5-71.9c13.3-20.2,33.4-35.5,56.4-43l37.4-12.2l40.4-5.9
			C1095.7,133,1104.5,132.4,1113.3,132.4 M1113.3,123.1c-9.2,0-18.5,0.7-27.7,2l-41.2,6l-38.2,12.4c-25.1,8.2-46.7,24.6-61.2,46.7
			l-47.5,71.9c-24.6,37.3-16.1,87.3,19.5,114.3l116.4,88.4c29,22,47.3,55.4,50.1,91.8l6.7,85.7c3.6,46.6,34.3,86.7,78.3,102.5
			l178.2,63.7c14.6,5.2,29.9,7.8,45.3,7.8c10.1,0,20.2-1.1,30.2-3.4l194-44.7l25.2-6c68-16.1,116.1-76.8,116.1-146.8v-92
			c0-24.6-16.2-46.2-39.8-53.1l-22.8-6.6c-18.6-5.4-35.3-16-48.2-30.5L1542,315.4c-18.7-21-42.7-36.5-69.5-44.7l-143.1-44.1
			c-23.6-7.3-45.5-19.1-64.5-34.9l-29.5-24.5C1200.8,138.5,1157.6,123.1,1113.3,123.1L1113.3,123.1z"/>
	</g>
	<path class="st5" d="M1194.7,282.3c-13.6,3.4-42.5,20.3-59.4,30.6c-8,4.9-12.9,13.6-12.9,23v7.7c0,11.4,7.2,21.6,18,25.4l51.5,18.3
		c7.7,2.7,13.7,8.7,16.4,16.4l16.7,47.1c1,2.9,1.6,5.9,1.6,9v68.9c0,10.3,5.9,19.7,15.2,24.3l43.9,21.4c4.5,2.2,8.3,5.6,10.9,9.8
		l17.8,27.9c6.9,10.9,20.7,15.4,32.7,10.6l51.3-20.3c1.3-0.5,2.5-1.1,3.6-1.8l51.6-30c4.8-2.8,10.4-4.1,16-3.6l21.2,1.9
		c15.8,1.4,29.4-11,29.4-26.9v0c0-12.1-8.1-22.8-19.8-26l-2-0.5c-11.7-3.2-19.8-13.9-19.8-26v-54.7c0-7-2.7-13.7-7.6-18.8
		l-32.1-33.1c-4.7-4.8-11-7.8-17.7-8.2l-56.6-3.5c-5.4-0.3-10.7-2.3-15-5.7l-41.7-32.6c-0.6-0.5-1.3-1-1.9-1.6l-45.3-42.6
		c-4.6-4.3-10.6-6.9-16.9-7.3C1229.9,280.8,1204.8,279.8,1194.7,282.3z"/>
	<path class="st6" d="M1188.4,312.9c0.9,7.1,7.7,16.2,7.7,16.2l8.5-15.4l20.8-7.7l-18.5-4.6l-2.3-10c0,0,8.2-9.3,8.7-10.7
		c-3.2,2-14.9,1.4-14.9,1.4l-4.7,10.6l-16.9-9.1l9.5,15.8l-12.6,7.2l17.7,3.1C1191.4,309.9,1188,310.3,1188.4,312.9z"/>
	<path class="st6" d="M1239.8,320.8c5.9-4,10.9-14.2,10.9-14.2l-17.6-0.6l-16.3-15l4.3,18.6l-7.9,6.6c0,0-12-3.1-13.5-2.9
		c3.2,2,8,12.6,8,12.6l11.6-0.7l-0.4,19.2l9.8-15.7l12.2,7.9l-5.3-17.2C1235.7,319.4,1237.6,322.3,1239.8,320.8z"/>
	<path class="st6" d="M1188.8,288.9c0.9,7.1,7.7,16.2,7.7,16.2l8.5-15.4l20.8-7.7l-18.5-4.6l-2.3-10c0,0,8.2-9.3,8.7-10.7
		c-3.2,2-14.9,1.4-14.9,1.4l-4.7,10.6l-16.9-9.1l9.5,15.8l-12.6,7.2l17.7,3.1C1191.9,285.8,1188.5,286.2,1188.8,288.9z"/>
	<path class="st6" d="M1224.3,299.5c0.9,7.1,7.7,16.2,7.7,16.2l8.5-15.4l20.8-7.7l-18.5-4.6l-2.3-10c0,0,8.2-9.3,8.7-10.7
		c-3.2,2-14.9,1.4-14.9,1.4l-4.7,10.6l-16.9-9.1l9.5,15.8l-12.6,7.2l17.7,3.1C1227.4,296.4,1223.9,296.8,1224.3,299.5z"/>
	<path class="st7" d="M1584.1,205.8l73.8,4.5c0,0-17.4,29.7-40.8,30.3S1584.1,205.8,1584.1,205.8z"/>
	<polyline class="st8" points="1617.4,208.8 1619,188.6 1620.5,171.5 1642.5,190.1 1620.5,189.2 	"/>
	<path class="st9" d="M1510,181.3l83.5,5.1c0,0-19.7,33.6-46.2,34.3C1520.9,221.5,1510,181.3,1510,181.3"/>
	<polyline class="st8" points="1547.7,184.6 1549.5,161.8 1551.2,142.4 1576.1,163.5 1551.2,162.5 	"/>
	<path class="st10" d="M1500.2,216.9c0,0,37-10.8,41.6-5.8s23.9,5.8,23.9,5.8l16.1,9.2"/>
	<path class="st11" d="M1576.3,237.3c0,0,32.7-9.5,36.7-5.1c4.1,4.4,21.1,5.1,21.1,5.1l14.2,8.2"/>
	<polygon class="st12" points="1435.1,433.4 1419.1,452.2 1447.6,479.2 1466.5,457 	"/>
	<polygon class="st13" points="1346.7,489.5 1346.7,514.2 1385.9,516.3 1385.9,487.2 	"/>
	<g>
		<circle class="st14" cx="1418" cy="483" r="12.9"/>
		<path d="M1418,470.3c7,0,12.7,5.7,12.7,12.7s-5.7,12.7-12.7,12.7s-12.7-5.7-12.7-12.7S1411,470.3,1418,470.3 M1418,470
			c-7.2,0-13,5.8-13,13s5.8,13,13,13s13-5.8,13-13S1425.2,470,1418,470L1418,470z"/>
	</g>
	<g>
		<g>
			<path class="st15" d="M1361,483c0,0-1-2.3-2-5.7"/>
			<path class="st16" d="M1356.9,466.5c-0.5-6.8,1.3-13,9.4-12.9c12,0.3,20-3.8,23.9-6.5c4.4-3,9.5-4.9,14.8-5.2c0.4,0,0.9,0,1.3,0"
				/>
			<path class="st15" d="M1411.8,442.5c1.9,0.4,3.8,1,5.7,2"/>
		</g>
	</g>
	<polygon class="st17" points="1467.4,506.7 1447.4,492.2 1422.7,522.8 1446.4,539.8 	"/>
	<g>
		<g>
			<path class="st15" d="M1432.4,538.7c0,0-1.1,2.3-3,5.2"/>
			<path class="st16" d="M1422.6,552.6c-4.8,4.8-10.7,7.6-15.9,1.3c-7.7-9.2-16-12.6-20.6-13.8c-5.1-1.4-9.9-3.9-13.6-7.8
				c-0.3-0.3-0.6-0.6-0.9-1"/>
			<path class="st15" d="M1368.4,526.9c-0.9-1.7-1.7-3.5-2.2-5.6"/>
		</g>
	</g>
	<polyline class="st18" points="1459.5,472.5 1459.5,485 1459.5,496 	"/>
	<path class="st19" d="M1286.9,346.6c4-2.7,7.4-9.6,7.4-9.6l-11.9-0.4l-11-10.2l2.9,12.6l-5.3,4.5c0,0-8.1-2.1-9.1-2
		c2.2,1.3,5.4,8.5,5.4,8.5l7.8-0.4l-0.3,13l6.6-10.6l8.2,5.4l-3.6-11.6C1284.1,345.7,1285.5,347.6,1286.9,346.6z"/>
	<circle class="st20" cx="1232.5" cy="427.5" r="23"/>
	<circle class="st20" cx="1272.5" cy="461.5" r="40"/>
	<line class="st21" x1="1268.7" y1="436" x2="1272.5" y2="483"/>
	<line class="st21" x1="1294" y1="460.6" x2="1246.9" y2="462.2"/>
	<polyline class="st22" points="1429.4,596.7 1416.1,599.9 1416.3,609.4 1427.8,610.4 1436.3,619.8 1425.6,629 1418,626.2 	"/>
	<polygon class="st22" points="1443,598.7 1441.3,604.3 1445.4,615.9 1454.2,623.7 1462.3,616.9 1462.7,604.3 1457,594.5 	"/>
	<polyline class="st22" points="1478.5,581.9 1467.6,587.8 1471.3,595.6 1481.1,598.3 1491.1,601.1 1486.7,612.8 1479.2,611.9 	"/>
</g>
<g id="map">
	<g>
		
			<image style="overflow:visible;" width="2010" height="1170" xlink:href="967BC72DF25A7BC5.png"  transform="matrix(1 0 0 1 -45 -45)">
		</image>
	</g>
</g>
</svg>
